<svg width="40" height="54" viewBox="0 0 40 54" fill="none" xmlns="http://www.w3.org/2000/svg">
<path fill-rule="evenodd" clip-rule="evenodd" d="M15 27C15 27.6904 15.5596 28.25 16.25 28.25H30.7322L25.3661 33.6161C24.878 34.1043 24.878 34.8957 25.3661 35.3839C25.8543 35.872 26.6457 35.872 27.1339 35.3839L34.6339 27.8839C35.122 27.3957 35.122 26.6043 34.6339 26.1161L27.1339 18.6161C26.6457 18.128 25.8543 18.128 25.3661 18.6161C24.878 19.1043 24.878 19.8957 25.3661 20.3839L30.7322 25.75H16.25C15.5596 25.75 15 26.3096 15 27Z" fill="#F03635"/>
<path fill-rule="evenodd" clip-rule="evenodd" d="M8.75 44.5C8.05964 44.5 7.5 43.9404 7.5 43.25L7.5 10.75C7.5 10.0596 8.05964 9.5 8.75 9.5C9.44036 9.5 10 10.0596 10 10.75V43.25C10 43.9404 9.44036 44.5 8.75 44.5Z" fill="#F03635"/>
</svg>
