<svg width="40" height="54" viewBox="0 0 40 54" fill="none" xmlns="http://www.w3.org/2000/svg">
<path fill-rule="evenodd" clip-rule="evenodd" d="M0 17C0 14.2386 2.23858 12 5 12H35C37.7614 12 40 14.2386 40 17V37C40 39.7614 37.7614 42 35 42H5C2.23858 42 0 39.7614 0 37V17ZM22.5 20.75C22.5 20.0596 23.0596 19.5 23.75 19.5H33.75C34.4404 19.5 35 20.0596 35 20.75C35 21.4404 34.4404 22 33.75 22H23.75C23.0596 22 22.5 21.4404 22.5 20.75ZM22.5 27C22.5 26.3096 23.0596 25.75 23.75 25.75H33.75C34.4404 25.75 35 26.3096 35 27C35 27.6904 34.4404 28.25 33.75 28.25H23.75C23.0596 28.25 22.5 27.6904 22.5 27ZM25 33.25C25 32.5596 25.5596 32 26.25 32H33.75C34.4404 32 35 32.5596 35 33.25C35 33.9404 34.4404 34.5 33.75 34.5H26.25C25.5596 34.5 25 33.9404 25 33.25ZM22.5 38.25C22.5 38.6744 22.4654 39.0917 22.3987 39.5H4.99996C3.77392 39.5 2.75401 38.6174 2.54089 37.453C3.00105 32.994 7.28418 29.5 12.5 29.5C18.0228 29.5 22.5 33.4175 22.5 38.25ZM17.5 22C17.5 24.7614 15.2614 27 12.5 27C9.73854 27 7.49996 24.7614 7.49996 22C7.49996 19.2386 9.73854 17 12.5 17C15.2614 17 17.5 19.2386 17.5 22Z" fill="#1D9BEF"/>
</svg>
