<svg width="40" height="54" viewBox="0 0 40 54" fill="none" xmlns="http://www.w3.org/2000/svg">
<path d="M20 44.5C10.335 44.5 2.5 36.665 2.5 27C2.5 17.335 10.335 9.5 20 9.5C29.665 9.5 37.5 17.335 37.5 27C37.5 36.665 29.665 44.5 20 44.5ZM20 47C31.0457 47 40 38.0457 40 27C40 15.9543 31.0457 7 20 7C8.95431 7 0 15.9543 0 27C0 38.0457 8.95431 47 20 47Z" fill="#0EB100"/>
<path d="M27.4242 19.4242C27.4065 19.4419 27.3899 19.4606 27.3744 19.4803L18.6935 30.5419L13.4597 25.3081C12.7275 24.5758 11.5403 24.5758 10.808 25.3081C10.0758 26.0403 10.0758 27.2275 10.808 27.9597L17.4242 34.5758C18.1564 35.3081 19.3436 35.3081 20.0758 34.5758C20.0921 34.5595 20.1075 34.5423 20.1219 34.5243L30.1024 22.0487C30.8079 21.3145 30.7991 20.1474 30.0758 19.4242C29.3436 18.6919 28.1564 18.6919 27.4242 19.4242Z" fill="#0EB100"/>
</svg>
