<svg width="40" height="54" viewBox="0 0 40 54" fill="none" xmlns="http://www.w3.org/2000/svg">
<path d="M20 34.5C15.8579 34.5 12.5 31.1421 12.5 27C12.5 22.8579 15.8579 19.5 20 19.5C24.1421 19.5 27.5 22.8579 27.5 27C27.5 31.1421 24.1421 34.5 20 34.5ZM20 37C25.5228 37 30 32.5228 30 27C30 21.4772 25.5228 17 20 17C14.4772 17 10 21.4772 10 27C10 32.5228 14.4772 37 20 37Z" fill="#FA7200"/>
<path d="M20 7C20.6904 7 21.25 7.55964 21.25 8.25V13.25C21.25 13.9404 20.6904 14.5 20 14.5C19.3096 14.5 18.75 13.9404 18.75 13.25V8.25C18.75 7.55964 19.3096 7 20 7Z" fill="#FA7200"/>
<path d="M20 39.5C20.6904 39.5 21.25 40.0596 21.25 40.75V45.75C21.25 46.4404 20.6904 47 20 47C19.3096 47 18.75 46.4404 18.75 45.75V40.75C18.75 40.0596 19.3096 39.5 20 39.5Z" fill="#FA7200"/>
<path d="M40 27C40 27.6904 39.4404 28.25 38.75 28.25H33.75C33.0596 28.25 32.5 27.6904 32.5 27C32.5 26.3096 33.0596 25.75 33.75 25.75H38.75C39.4404 25.75 40 26.3096 40 27Z" fill="#FA7200"/>
<path d="M7.5 27C7.5 27.6904 6.94036 28.25 6.25 28.25H1.25C0.559644 28.25 -3.01764e-08 27.6904 0 27C3.01764e-08 26.3096 0.559644 25.75 1.25 25.75H6.25C6.94036 25.75 7.5 26.3096 7.5 27Z" fill="#FA7200"/>
<path d="M34.1421 12.8579C34.6303 13.3461 34.6303 14.1376 34.1421 14.6257L30.6066 18.1612C30.1184 18.6494 29.327 18.6494 28.8388 18.1612C28.3507 17.6731 28.3507 16.8816 28.8388 16.3935L32.3744 12.8579C32.8625 12.3698 33.654 12.3698 34.1421 12.8579Z" fill="#FA7200"/>
<path d="M11.1612 35.8389C11.6493 36.3271 11.6493 37.1185 11.1612 37.6067L7.62563 41.1422C7.13747 41.6304 6.34602 41.6304 5.85786 41.1422C5.3697 40.6541 5.3697 39.8626 5.85786 39.3744L9.39339 35.8389C9.88155 35.3508 10.673 35.3508 11.1612 35.8389Z" fill="#FA7200"/>
<path d="M34.1421 41.1422C33.654 41.6304 32.8625 41.6304 32.3744 41.1422L28.8388 37.6067C28.3507 37.1186 28.3507 36.3271 28.8388 35.8389C29.327 35.3508 30.1184 35.3508 30.6066 35.8389L34.1421 39.3745C34.6303 39.8626 34.6303 40.6541 34.1421 41.1422Z" fill="#FA7200"/>
<path d="M11.1612 18.1613C10.673 18.6494 9.88155 18.6494 9.3934 18.1613L5.85786 14.6257C5.36971 14.1376 5.36971 13.3461 5.85786 12.858C6.34602 12.3698 7.13748 12.3698 7.62563 12.858L11.1612 16.3935C11.6493 16.8817 11.6493 17.6731 11.1612 18.1613Z" fill="#FA7200"/>
</svg>
