<svg width="16" height="17" viewBox="0 0 16 17" fill="none" xmlns="http://www.w3.org/2000/svg">
<path d="M9.66873 0.990393L8.00004 0.126099L6.33135 0.990393L4.47333 1.272L3.63135 2.95206L2.2937 4.272L2.60004 6.1261L2.2937 7.9802L3.63135 9.30014L4.47333 10.9802L6.33135 11.2618L8.00004 12.1261L9.66873 11.2618L11.5268 10.9802L12.3687 9.30014L13.7064 7.9802L13.4 6.1261L13.7064 4.272L12.3687 2.95206L11.5268 1.272L9.66873 0.990393ZM10.8648 2.18309L11.5487 3.54781L12.6353 4.62L12.3865 6.1261L12.6353 7.63219L11.5487 8.70439L10.8648 10.0691L9.35553 10.2979L8.00004 10.9999L6.64455 10.2979L5.13528 10.0691L4.45133 8.70439L3.36476 7.63219L3.6136 6.1261L3.36476 4.62L4.45133 3.54781L5.13528 2.18309L6.64455 1.95434L8.00004 1.25227L9.35553 1.95434L10.8648 2.18309Z" fill="white"/>
<path d="M4.00004 11.9199V16.1261L8.00004 15.1261L12 16.1261V11.9199L9.98193 12.2258L8.00003 13.2523L6.01813 12.2258L4.00004 11.9199Z" fill="white"/>
</svg>
