<svg width="16" height="17" viewBox="0 0 16 17" fill="none" xmlns="http://www.w3.org/2000/svg">
<path d="M3.5 0.126099C3.77614 0.126099 4 0.349956 4 0.626099V1.1261H12V0.626099C12 0.349956 12.2239 0.126099 12.5 0.126099C12.7761 0.126099 13 0.349956 13 0.626099V1.1261H14C15.1046 1.1261 16 2.02153 16 3.1261V14.1261C16 15.2307 15.1046 16.1261 14 16.1261H2C0.895431 16.1261 0 15.2307 0 14.1261V3.1261C0 2.02153 0.895431 1.1261 2 1.1261H3V0.626099C3 0.349956 3.22386 0.126099 3.5 0.126099ZM2 2.1261C1.44772 2.1261 1 2.57381 1 3.1261V4.1261H15V3.1261C15 2.57381 14.5523 2.1261 14 2.1261H2ZM15 5.1261H1V14.1261C1 14.6784 1.44772 15.1261 2 15.1261H14C14.5523 15.1261 15 14.6784 15 14.1261V5.1261Z" fill="white"/>
<path d="M11 7.6261C11 7.34996 11.2239 7.1261 11.5 7.1261H12.5C12.7761 7.1261 13 7.34996 13 7.6261V8.6261C13 8.90224 12.7761 9.1261 12.5 9.1261H11.5C11.2239 9.1261 11 8.90224 11 8.6261V7.6261Z" fill="white"/>
<path d="M8 7.6261C8 7.34996 8.22386 7.1261 8.5 7.1261H9.5C9.77614 7.1261 10 7.34996 10 7.6261V8.6261C10 8.90224 9.77614 9.1261 9.5 9.1261H8.5C8.22386 9.1261 8 8.90224 8 8.6261V7.6261Z" fill="white"/>
<path d="M6 10.6261C6 10.35 6.22386 10.1261 6.5 10.1261H7.5C7.77614 10.1261 8 10.35 8 10.6261V11.6261C8 11.9022 7.77614 12.1261 7.5 12.1261H6.5C6.22386 12.1261 6 11.9022 6 11.6261V10.6261Z" fill="white"/>
<path d="M3 10.6261C3 10.35 3.22386 10.1261 3.5 10.1261H4.5C4.77614 10.1261 5 10.35 5 10.6261V11.6261C5 11.9022 4.77614 12.1261 4.5 12.1261H3.5C3.22386 12.1261 3 11.9022 3 11.6261V10.6261Z" fill="white"/>
</svg>
