<svg width="17" height="17" viewBox="0 0 17 17" fill="none" xmlns="http://www.w3.org/2000/svg">
<path d="M2.86603 14.9769C2.78823 15.4203 3.2258 15.7674 3.61224 15.5688L8.00146 13.3129L12.3907 15.5688C12.7771 15.7674 13.2147 15.4203 13.1369 14.9769L12.3072 10.2474L15.8295 6.89072C16.1587 6.57702 15.9883 6.00346 15.5473 5.94082L10.6488 5.24495L8.4647 0.918404C8.26795 0.528664 7.73498 0.528664 7.53823 0.918404L5.35411 5.24495L0.455637 5.94082C0.0146475 6.00346 -0.155753 6.57702 0.173428 6.89072L3.69576 10.2474L2.86603 14.9769ZM7.77063 12.2087L4.08488 14.1031L4.77914 10.1458C4.81187 9.95926 4.75033 9.76824 4.61639 9.6406L1.70955 6.8705L5.76186 6.29483C5.92938 6.27104 6.07565 6.16405 6.15467 6.00751L8.00146 2.34917L9.84826 6.00751C9.92728 6.16405 10.0736 6.27104 10.2411 6.29483L14.2934 6.8705L11.3865 9.6406C11.2526 9.76824 11.1911 9.95926 11.2238 10.1458L11.918 14.1031L8.23229 12.2087C8.0867 12.1339 7.91623 12.1339 7.77063 12.2087Z" fill="white"/>
</svg>
