<svg width="16" height="17" viewBox="0 0 16 17" fill="none" xmlns="http://www.w3.org/2000/svg">
<path d="M8.5 5.16047V6.26094L9.45302 5.71071L9.95302 6.57674L8.99998 7.12697L9.95303 7.67722L9.45303 8.54324L8.5 7.99301V9.09348H7.5V7.99299L6.54694 8.54324L6.04694 7.67722L6.99998 7.12697L6.04694 6.57674L6.54694 5.71071L7.5 6.26096V5.16047H8.5Z" fill="white"/>
<path d="M13.25 9.1261C13.1119 9.1261 13 9.23803 13 9.3761V9.8761C13 10.0142 13.1119 10.1261 13.25 10.1261H13.75C13.8881 10.1261 14 10.0142 14 9.8761V9.3761C14 9.23803 13.8881 9.1261 13.75 9.1261H13.25Z" fill="white"/>
<path d="M13 11.3761C13 11.238 13.1119 11.1261 13.25 11.1261H13.75C13.8881 11.1261 14 11.238 14 11.3761V11.8761C14 12.0142 13.8881 12.1261 13.75 12.1261H13.25C13.1119 12.1261 13 12.0142 13 11.8761V11.3761Z" fill="white"/>
<path d="M13.25 13.1261C13.1119 13.1261 13 13.238 13 13.3761V13.8761C13 14.0142 13.1119 14.1261 13.25 14.1261H13.75C13.8881 14.1261 14 14.0142 14 13.8761V13.3761C14 13.238 13.8881 13.1261 13.75 13.1261H13.25Z" fill="white"/>
<path d="M2.25 9.1261C2.11193 9.1261 2 9.23803 2 9.3761V9.8761C2 10.0142 2.11193 10.1261 2.25 10.1261H2.75C2.88807 10.1261 3 10.0142 3 9.8761V9.3761C3 9.23803 2.88807 9.1261 2.75 9.1261H2.25Z" fill="white"/>
<path d="M2.25 11.1261C2.11193 11.1261 2 11.238 2 11.3761V11.8761C2 12.0142 2.11193 12.1261 2.25 12.1261H2.75C2.88807 12.1261 3 12.0142 3 11.8761V11.3761C3 11.238 2.88807 11.1261 2.75 11.1261H2.25Z" fill="white"/>
<path d="M2 13.3761C2 13.238 2.11193 13.1261 2.25 13.1261H2.75C2.88807 13.1261 3 13.238 3 13.3761V13.8761C3 14.0142 2.88807 14.1261 2.75 14.1261H2.25C2.11193 14.1261 2 14.0142 2 13.8761V13.3761Z" fill="white"/>
<path d="M5 1.1261C5 0.573814 5.44772 0.126099 6 0.126099H10C10.5523 0.126099 11 0.573814 11 1.1261V2.1261C11.5523 2.1261 12 2.57381 12 3.1261V7.1261H15C15.5523 7.1261 16 7.57381 16 8.1261V15.1261C16 15.6784 15.5523 16.1261 15 16.1261H1C0.447716 16.1261 0 15.6784 0 15.1261V8.1261C0 7.57381 0.447715 7.1261 1 7.1261H4V3.1261C4 2.57381 4.44771 2.1261 5 2.1261V1.1261ZM7 15.1261H9V12.1261H7V15.1261ZM10 15.1261H11V3.1261L5 3.1261V15.1261H6V12.1261C6 11.5738 6.44772 11.1261 7 11.1261H9C9.55228 11.1261 10 11.5738 10 12.1261V15.1261ZM10 1.1261H6V2.1261H10V1.1261ZM12 8.1261V15.1261H15V8.1261H12ZM4 15.1261V8.1261H1V15.1261H4Z" fill="white"/>
</svg>
