<svg width="16" height="17" viewBox="0 0 16 17" fill="none" xmlns="http://www.w3.org/2000/svg">
<path d="M8.23529 1.68492C8.08824 1.60649 7.91176 1.60649 7.76471 1.68492L0.264706 5.68492C0.101774 5.77182 0 5.94144 0 6.1261C0 6.31075 0.101774 6.48038 0.264706 6.56728L3.1875 8.1261L0.264706 9.68492C0.101774 9.77182 0 9.94144 0 10.1261C0 10.3108 0.101774 10.4804 0.264706 10.5673L7.76471 14.5673C7.91176 14.6457 8.08824 14.6457 8.23529 14.5673L15.7353 10.5673C15.8982 10.4804 16 10.3108 16 10.1261C16 9.94144 15.8982 9.77182 15.7353 9.68492L12.8125 8.1261L15.7353 6.56728C15.8982 6.48038 16 6.31075 16 6.1261C16 5.94144 15.8982 5.77182 15.7353 5.68492L8.23529 1.68492ZM11.75 8.69277L14.4375 10.1261L8 13.5594L1.5625 10.1261L4.25 8.69277L7.76471 10.5673C7.91176 10.6457 8.08824 10.6457 8.23529 10.5673L11.75 8.69277ZM8 9.55943L1.5625 6.1261L8 2.69277L14.4375 6.1261L8 9.55943Z" fill="white"/>
</svg>
