<svg width="16" height="17" viewBox="0 0 16 17" fill="black" xmlns="http://www.w3.org/2000/svg">
<path d="M6 1.1261H1L1 15.1261H6V1.1261ZM15 1.1261H10V6.1261H15V1.1261ZM15 10.1261V15.1261H10V10.1261H15ZM0 1.1261C0 0.573814 0.447715 0.126099 1 0.126099H6C6.55228 0.126099 7 0.573814 7 1.1261V15.1261C7 15.6784 6.55228 16.1261 6 16.1261H1C0.447715 16.1261 0 15.6784 0 15.1261V1.1261ZM9 1.1261C9 0.573814 9.44772 0.126099 10 0.126099H15C15.5523 0.126099 16 0.573814 16 1.1261V6.1261C16 6.67838 15.5523 7.1261 15 7.1261H10C9.44772 7.1261 9 6.67838 9 6.1261V1.1261ZM10 9.1261C9.44772 9.1261 9 9.57381 9 10.1261V15.1261C9 15.6784 9.44772 16.1261 10 16.1261H15C15.5523 16.1261 16 15.6784 16 15.1261V10.1261C16 9.57381 15.5523 9.1261 15 9.1261H10Z" fill="white"/>
</svg>
