<svg width="16" height="17" viewBox="0 0 16 17" fill="none" xmlns="http://www.w3.org/2000/svg">
<path d="M5.5 9.6371C5.5763 10.5906 6.32909 11.3339 7.6821 11.4219V12.1261H8.2823V11.4171C9.68108 11.3193 10.5 10.5711 10.5 9.48551C10.5 8.49774 9.87436 7.98918 8.75534 7.72512L8.2823 7.61265V5.69578C8.8825 5.76424 9.26399 6.09187 9.35554 6.54664H10.4084C10.3321 5.62732 9.54374 4.90849 8.2823 4.83026V4.1261H7.6821V4.84492C6.48677 4.96228 5.67294 5.68111 5.67294 6.69823C5.67294 7.59798 6.27823 8.17011 7.28535 8.40483L7.6821 8.50263V10.5369C7.06663 10.4439 6.65972 10.1065 6.56816 9.6371H5.5ZM7.67701 7.47084C7.08698 7.33392 6.76653 7.05519 6.76653 6.63466C6.76653 6.16522 7.11241 5.81314 7.6821 5.71045V7.47084H7.67701ZM8.36877 8.664C9.08596 8.83025 9.41658 9.0992 9.41658 9.57353C9.41658 10.1163 9.00458 10.488 8.2823 10.5564V8.64444L8.36877 8.664Z" fill="white"/>
<path d="M8 15.1261C4.13401 15.1261 1 11.9921 1 8.1261C1 4.26011 4.13401 1.1261 8 1.1261C11.866 1.1261 15 4.26011 15 8.1261C15 11.9921 11.866 15.1261 8 15.1261ZM8 16.1261C12.4183 16.1261 16 12.5444 16 8.1261C16 3.70782 12.4183 0.126099 8 0.126099C3.58172 0.126099 0 3.70782 0 8.1261C0 12.5444 3.58172 16.1261 8 16.1261Z" fill="white"/>
<path d="M8 13.6261C4.96243 13.6261 2.5 11.1637 2.5 8.1261C2.5 5.08853 4.96243 2.6261 8 2.6261C11.0376 2.6261 13.5 5.08853 13.5 8.1261C13.5 11.1637 11.0376 13.6261 8 13.6261ZM8 14.1261C11.3137 14.1261 14 11.4398 14 8.1261C14 4.81239 11.3137 2.1261 8 2.1261C4.68629 2.1261 2 4.81239 2 8.1261C2 11.4398 4.68629 14.1261 8 14.1261Z" fill="white"/>
</svg>
