<svg width="16" height="17" viewBox="0 0 16 17" fill="none" xmlns="http://www.w3.org/2000/svg">
<path fill-rule="evenodd" clip-rule="evenodd" d="M10.3536 6.27255C10.5488 6.46781 10.5488 6.78439 10.3536 6.97965L7.35355 9.97965C7.25979 10.0734 7.13261 10.1261 7 10.1261C6.86739 10.1261 6.74021 10.0734 6.64645 9.97965L5.14645 8.47965C4.95118 8.28439 4.95118 7.96781 5.14645 7.77255C5.34171 7.57728 5.65829 7.57728 5.85355 7.77255L7 8.91899L9.64645 6.27255C9.84171 6.07728 10.1583 6.07728 10.3536 6.27255Z" fill="white"/>
<path d="M10.2729 2.63876L9.3519 1.69553L10.0674 0.996897L10.6892 1.63373L11.5792 1.62313C13.2019 1.6038 14.5223 2.92419 14.503 4.54685L14.4924 5.43687L15.1292 6.05872C16.2903 7.19245 16.2903 9.05975 15.1292 10.1935L14.4924 10.8153L14.503 11.7053C14.5223 13.328 13.2019 14.6484 11.5792 14.6291L10.6892 14.6185L10.0674 15.2553C8.93365 16.4164 7.06635 16.4164 5.93262 15.2553L5.31077 14.6185L4.42075 14.6291C2.79809 14.6484 1.47771 13.328 1.49703 11.7053L1.50763 10.8153L0.870798 10.1935C-0.290266 9.05975 -0.290266 7.19245 0.870798 6.05872L1.50763 5.43687L1.49703 4.54685C1.47771 2.92419 2.79809 1.6038 4.42075 1.62313L5.31077 1.63373L5.93262 0.996897C7.06635 -0.164167 8.93365 -0.164167 10.0674 0.996897L9.3519 1.69553C8.61053 0.936288 7.38947 0.936288 6.6481 1.69553L5.72707 2.63876L4.40884 2.62306C3.34775 2.61042 2.48432 3.47385 2.49696 4.53494L2.51266 5.85317L1.56943 6.7742C0.810189 7.51556 0.810189 8.73663 1.56943 9.478L2.51266 10.399L2.49696 11.7173C2.48432 12.7784 3.34775 13.6418 4.40884 13.6291L5.72707 13.6134L6.6481 14.5567C7.38947 15.3159 8.61053 15.3159 9.3519 14.5567L10.2729 13.6134L11.5912 13.6291C12.6523 13.6418 13.5157 12.7784 13.503 11.7173L13.4873 10.399L14.4306 9.478C15.1898 8.73663 15.1898 7.51556 14.4306 6.7742L13.4873 5.85317L13.503 4.53494C13.5157 3.47385 12.6523 2.61042 11.5912 2.62306L10.2729 2.63876Z" fill="white"/>
</svg>
