<svg width="16" height="17" viewBox="0 0 16 17" fill="none" xmlns="http://www.w3.org/2000/svg">
<path d="M1.5 1.1261C1.22386 1.1261 1 1.34996 1 1.6261V4.6261C1 4.90224 0.776142 5.1261 0.5 5.1261C0.223858 5.1261 0 4.90224 0 4.6261V1.6261C0 0.797672 0.671573 0.126099 1.5 0.126099H4.5C4.77614 0.126099 5 0.349956 5 0.626099C5 0.902241 4.77614 1.1261 4.5 1.1261H1.5Z" fill="white"/>
<path d="M11 0.626099C11 0.349956 11.2239 0.126099 11.5 0.126099H14.5C15.3284 0.126099 16 0.797672 16 1.6261V4.6261C16 4.90224 15.7761 5.1261 15.5 5.1261C15.2239 5.1261 15 4.90224 15 4.6261V1.6261C15 1.34996 14.7761 1.1261 14.5 1.1261H11.5C11.2239 1.1261 11 0.902241 11 0.626099Z" fill="white"/>
<path d="M0.5 11.1261C0.776142 11.1261 1 11.35 1 11.6261V14.6261C1 14.9022 1.22386 15.1261 1.5 15.1261H4.5C4.77614 15.1261 5 15.35 5 15.6261C5 15.9022 4.77614 16.1261 4.5 16.1261H1.5C0.671573 16.1261 0 15.4545 0 14.6261V11.6261C0 11.35 0.223858 11.1261 0.5 11.1261Z" fill="white"/>
<path d="M15.5 11.1261C15.7761 11.1261 16 11.35 16 11.6261V14.6261C16 15.4545 15.3284 16.1261 14.5 16.1261H11.5C11.2239 16.1261 11 15.9022 11 15.6261C11 15.35 11.2239 15.1261 11.5 15.1261H14.5C14.7761 15.1261 15 14.9022 15 14.6261V11.6261C15 11.35 15.2239 11.1261 15.5 11.1261Z" fill="white"/>
<path d="M3 14.1261C3 14.1261 2 14.1261 2 13.1261C2 12.1261 3 9.1261 8 9.1261C13 9.1261 14 12.1261 14 13.1261C14 14.1261 13 14.1261 13 14.1261H3Z" fill="white"/>
<path d="M11 5.1261C11 6.78295 9.65685 8.1261 8 8.1261C6.34315 8.1261 5 6.78295 5 5.1261C5 3.46924 6.34315 2.1261 8 2.1261C9.65685 2.1261 11 3.46924 11 5.1261Z" fill="white"/>
</svg>
