<svg width="16" height="16" viewBox="0 0 16 16" fill="none" xmlns="http://www.w3.org/2000/svg">
<path d="M4 15.1261C4 15.1261 3 15.1261 3 14.1261C3 13.1261 4 10.1261 8 10.1261C12 10.1261 13 13.1261 13 14.1261C13 15.1261 12 15.1261 12 15.1261H4Z" fill="white"/>
<path d="M8 9.17611C9.38071 9.17611 10.5 8.05682 10.5 6.67611C10.5 5.2954 9.38071 4.17611 8 4.17611C6.61929 4.17611 5.5 5.2954 5.5 6.67611C5.5 8.05682 6.61929 9.17611 8 9.17611Z" fill="white"/>
<path d="M2 0.126099C0.895431 0.126099 0 1.02153 0 2.1261V11.6261C0 12.4545 0.671573 13.1261 1.5 13.1261H2.15288C2.32816 12.4996 2.66508 11.7805 3.21878 11.1261H1V2.1261C1 1.57381 1.44772 1.1261 2 1.1261H14C14.5523 1.1261 15 1.57381 15 2.1261V11.1261H12.7812C13.3349 11.7805 13.6718 12.4996 13.8471 13.1261H14.5C15.3284 13.1261 16 12.4545 16 11.6261V2.1261C16 1.02153 15.1046 0.126099 14 0.126099H2Z" fill="white"/>
</svg>
