<svg width="16" height="17" viewBox="0 0 16 17" fill="none" xmlns="http://www.w3.org/2000/svg">
<path fill-rule="evenodd" clip-rule="evenodd" d="M6 8.1261V1.1261H7V7.243L8.74275 6.19735C8.90109 6.10235 9.09891 6.10235 9.25725 6.19735L11 7.243V1.1261H12V8.1261C12 8.30623 11.9031 8.47245 11.7463 8.5612C11.5896 8.64995 11.3972 8.64752 11.2428 8.55485L9 7.20919L6.75725 8.55485C6.60278 8.64752 6.4104 8.64995 6.25365 8.5612C6.0969 8.47245 6 8.30623 6 8.1261Z" fill="white"/>
<path d="M3 0.126099H13C14.1046 0.126099 15 1.02153 15 2.1261V14.1261C15 15.2307 14.1046 16.1261 13 16.1261H3C1.89543 16.1261 1 15.2307 1 14.1261V13.1261H2V14.1261C2 14.6784 2.44772 15.1261 3 15.1261H13C13.5523 15.1261 14 14.6784 14 14.1261V2.1261C14 1.57381 13.5523 1.1261 13 1.1261H3C2.44772 1.1261 2 1.57381 2 2.1261V3.1261H1V2.1261C1 1.02153 1.89543 0.126099 3 0.126099Z" fill="white"/>
<path d="M1 5.1261V4.6261C1 4.34996 1.22386 4.1261 1.5 4.1261C1.77614 4.1261 2 4.34996 2 4.6261V5.1261H2.5C2.77614 5.1261 3 5.34996 3 5.6261C3 5.90224 2.77614 6.1261 2.5 6.1261H0.5C0.223858 6.1261 0 5.90224 0 5.6261C0 5.34996 0.223858 5.1261 0.5 5.1261H1Z" fill="white"/>
<path d="M1 8.1261V7.6261C1 7.34996 1.22386 7.1261 1.5 7.1261C1.77614 7.1261 2 7.34996 2 7.6261V8.1261H2.5C2.77614 8.1261 3 8.34996 3 8.6261C3 8.90224 2.77614 9.1261 2.5 9.1261H0.5C0.223858 9.1261 0 8.90224 0 8.6261C0 8.34996 0.223858 8.1261 0.5 8.1261H1Z" fill="white"/>
<path d="M1 11.1261V10.6261C1 10.35 1.22386 10.1261 1.5 10.1261C1.77614 10.1261 2 10.35 2 10.6261V11.1261H2.5C2.77614 11.1261 3 11.35 3 11.6261C3 11.9022 2.77614 12.1261 2.5 12.1261H0.5C0.223858 12.1261 0 11.9022 0 11.6261C0 11.35 0.223858 11.1261 0.5 11.1261H1Z" fill="white"/>
</svg>
