<svg width="16" height="17" viewBox="0 0 16 17" fill="none" xmlns="http://www.w3.org/2000/svg">
<g clip-path="url(#clip0_116_2977)">
<path fill-rule="evenodd" clip-rule="evenodd" d="M4.31781 2.81351C3.35608 3.25067 3 3.75238 3 4.1261C3 4.49982 3.35608 5.00153 4.31781 5.43868C5.23441 5.85532 6.53579 6.1261 8 6.1261C9.46421 6.1261 10.7656 5.85532 11.6822 5.43868C12.6439 5.00153 13 4.49982 13 4.1261C13 3.75238 12.6439 3.25067 11.6822 2.81351C10.7656 2.39688 9.46421 2.1261 8 2.1261C6.53579 2.1261 5.23441 2.39688 4.31781 2.81351ZM13 5.82423C12.729 6.02656 12.4201 6.20173 12.096 6.34905C11.022 6.83724 9.57336 7.1261 8 7.1261C6.42664 7.1261 4.97802 6.83724 3.90401 6.34905C3.5799 6.20173 3.27105 6.02656 3 5.82423V7.1261C3 7.49982 3.35608 8.00153 4.31781 8.43868C5.23441 8.85532 6.53579 9.1261 8 9.1261C9.46421 9.1261 10.7656 8.85532 11.6822 8.43868C12.6439 8.00153 13 7.49982 13 7.1261V5.82423ZM14 4.1261C14 3.1191 13.1249 2.37082 12.096 1.90315C11.022 1.41496 9.57336 1.1261 8 1.1261C6.42664 1.1261 4.97802 1.41496 3.90401 1.90315C2.87513 2.37082 2 3.1191 2 4.1261V13.1261C2 14.1331 2.87513 14.8814 3.90401 15.349C4.97802 15.8372 6.42664 16.1261 8 16.1261C9.57336 16.1261 11.022 15.8372 12.096 15.349C13.1249 14.8814 14 14.1331 14 13.1261V4.1261ZM13 8.82423C12.729 9.02656 12.4201 9.20173 12.096 9.34905C11.022 9.83724 9.57336 10.1261 8 10.1261C6.42664 10.1261 4.97802 9.83724 3.90401 9.34905C3.5799 9.20173 3.27105 9.02656 3 8.82423V10.1261C3 10.4998 3.35608 11.0015 4.31781 11.4387C5.23441 11.8553 6.53579 12.1261 8 12.1261C9.46421 12.1261 10.7656 11.8553 11.6822 11.4387C12.6439 11.0015 13 10.4998 13 10.1261V8.82423ZM13 11.8242C12.729 12.0266 12.4201 12.2017 12.096 12.349C11.022 12.8372 9.57336 13.1261 8 13.1261C6.42664 13.1261 4.97802 12.8372 3.90401 12.349C3.5799 12.2017 3.27105 12.0266 3 11.8242V13.1261C3 13.4998 3.35608 14.0015 4.31781 14.4387C5.23441 14.8553 6.53579 15.1261 8 15.1261C9.46421 15.1261 10.7656 14.8553 11.6822 14.4387C12.6439 14.0015 13 13.4998 13 13.1261V11.8242Z" fill="white"/>
</g>
<defs>
<clipPath id="clip0_116_2977">
<rect width="16" height="16" fill="white" transform="translate(0 0.126099)"/>
</clipPath>
</defs>
</svg>
