<svg width="16" height="17" viewBox="0 0 16 17" fill="none" xmlns="http://www.w3.org/2000/svg">
<path d="M8.21144 2.17301C8.07742 2.11046 7.92258 2.11046 7.78856 2.17301L0.288558 5.67301C0.107914 5.75731 -0.00539504 5.94086 0.000197994 6.14013C0.005791 6.3394 0.129217 6.5163 0.314306 6.59034L7.81431 9.59034C7.93351 9.63802 8.06649 9.63802 8.1857 9.59034L14 7.26462V13.1261C13.4477 13.1261 13 13.5738 13 14.1261V16.1261H16V14.1261C16 13.5738 15.5523 13.1261 15 13.1261V6.86462L15.6857 6.59034C15.8708 6.5163 15.9942 6.3394 15.9998 6.14013C16.0054 5.94086 15.8921 5.75731 15.7114 5.67301L8.21144 2.17301ZM8 8.58758L1.75802 6.09079L8 3.17786L14.242 6.09079L8 8.58758Z" fill="white"/>
<path d="M4.17556 9.15793C4.04549 9.10916 3.90098 9.11669 3.77669 9.17874C3.6524 9.24078 3.55952 9.35174 3.52032 9.48502L3.02032 11.185C2.94756 11.4324 3.07488 11.6946 3.31431 11.7903L7.81431 13.5903C7.93351 13.638 8.06649 13.638 8.1857 13.5903L12.6857 11.7903C12.9251 11.6946 13.0524 11.4324 12.9797 11.185L12.4797 9.48502C12.4405 9.35174 12.3476 9.24078 12.2233 9.17874C12.099 9.11669 11.9545 9.10916 11.8244 9.15793L8 10.5921L4.17556 9.15793ZM4.10803 11.0308L4.32795 10.2831L7.82444 11.5943C7.93763 11.6367 8.06237 11.6367 8.17556 11.5943L11.6721 10.2831L11.892 11.0308L8 12.5876L4.10803 11.0308Z" fill="white"/>
</svg>
