<svg width="16" height="17" viewBox="0 0 16 17" fill="none" xmlns="http://www.w3.org/2000/svg">
<path d="M1.91991 0.632561C2.07856 0.606816 2.23991 0.658904 2.35355 0.772551L3 1.419L3.64645 0.772551C3.84171 0.577289 4.15829 0.577289 4.35355 0.772551L5 1.419L5.64645 0.772551C5.84171 0.577289 6.15829 0.577289 6.35355 0.772551L7 1.419L7.64645 0.772551C7.84171 0.577289 8.15829 0.577289 8.35355 0.772551L9 1.419L9.64645 0.772551C9.84171 0.577289 10.1583 0.577289 10.3536 0.772551L11 1.419L11.6464 0.772551C11.8417 0.577289 12.1583 0.577289 12.3536 0.772551L13 1.419L13.6464 0.772551C13.7601 0.658904 13.9214 0.606816 14.0801 0.632561C14.2387 0.658306 14.3753 0.758744 14.4472 0.902498L14.9472 1.9025C14.9819 1.97193 15 2.04848 15 2.1261V14.1261C15 14.2037 14.9819 14.2803 14.9472 14.3497L14.4472 15.3497C14.3753 15.4935 14.2387 15.5939 14.0801 15.6196C13.9214 15.6454 13.7601 15.5933 13.6464 15.4797L13 14.8332L12.3536 15.4797C12.1583 15.6749 11.8417 15.6749 11.6464 15.4797L11 14.8332L10.3536 15.4797C10.1583 15.6749 9.84171 15.6749 9.64645 15.4797L9 14.8332L8.35355 15.4797C8.15829 15.6749 7.84171 15.6749 7.64645 15.4797L7 14.8332L6.35355 15.4797C6.15829 15.6749 5.84171 15.6749 5.64645 15.4797L5 14.8332L4.35355 15.4797C4.15829 15.6749 3.84171 15.6749 3.64645 15.4797L3 14.8332L2.35355 15.4797C2.23991 15.5933 2.07856 15.6454 1.91991 15.6196C1.76126 15.5939 1.62466 15.4935 1.55279 15.3497L1.05279 14.3497C1.01807 14.2803 1 14.2037 1 14.1261V2.1261C1 2.04848 1.01807 1.97193 1.05279 1.9025L1.55279 0.902498C1.62466 0.758744 1.76126 0.658306 1.91991 0.632561ZM2.13698 1.97019L2 2.24414V14.0081L2.13698 14.282L2.64645 13.7726C2.84171 13.5773 3.15829 13.5773 3.35355 13.7726L4 14.419L4.64645 13.7726C4.84171 13.5773 5.15829 13.5773 5.35355 13.7726L6 14.419L6.64645 13.7726C6.84171 13.5773 7.15829 13.5773 7.35355 13.7726L8 14.419L8.64645 13.7726C8.84171 13.5773 9.15829 13.5773 9.35355 13.7726L10 14.419L10.6464 13.7726C10.8417 13.5773 11.1583 13.5773 11.3536 13.7726L12 14.419L12.6464 13.7726C12.8417 13.5773 13.1583 13.5773 13.3536 13.7726L13.863 14.282L14 14.0081V2.24414L13.863 1.97019L13.3536 2.47966C13.1583 2.67492 12.8417 2.67492 12.6464 2.47966L12 1.83321L11.3536 2.47966C11.1583 2.67492 10.8417 2.67492 10.6464 2.47966L10 1.83321L9.35355 2.47966C9.15829 2.67492 8.84171 2.67492 8.64645 2.47966L8 1.83321L7.35355 2.47966C7.15829 2.67492 6.84171 2.67492 6.64645 2.47966L6 1.83321L5.35355 2.47966C5.15829 2.67492 4.84171 2.67492 4.64645 2.47966L4 1.83321L3.35355 2.47966C3.15829 2.67492 2.84171 2.67492 2.64645 2.47966L2.13698 1.97019Z" fill="white"/>
<path d="M3 4.6261C3 4.34996 3.22386 4.1261 3.5 4.1261H9.5C9.77614 4.1261 10 4.34996 10 4.6261C10 4.90225 9.77614 5.1261 9.5 5.1261H3.5C3.22386 5.1261 3 4.90225 3 4.6261ZM3 6.6261C3 6.34996 3.22386 6.1261 3.5 6.1261H9.5C9.77614 6.1261 10 6.34996 10 6.6261C10 6.90225 9.77614 7.1261 9.5 7.1261H3.5C3.22386 7.1261 3 6.90225 3 6.6261ZM3 8.6261C3 8.34996 3.22386 8.1261 3.5 8.1261H9.5C9.77614 8.1261 10 8.34996 10 8.6261C10 8.90225 9.77614 9.1261 9.5 9.1261H3.5C3.22386 9.1261 3 8.90225 3 8.6261ZM3 10.6261C3 10.35 3.22386 10.1261 3.5 10.1261H9.5C9.77614 10.1261 10 10.35 10 10.6261C10 10.9022 9.77614 11.1261 9.5 11.1261H3.5C3.22386 11.1261 3 10.9022 3 10.6261Z" fill="white"/>
<path d="M11 4.6261C11 4.34996 11.2239 4.1261 11.5 4.1261H12.5C12.7761 4.1261 13 4.34996 13 4.6261C13 4.90225 12.7761 5.1261 12.5 5.1261H11.5C11.2239 5.1261 11 4.90225 11 4.6261ZM11 6.6261C11 6.34996 11.2239 6.1261 11.5 6.1261H12.5C12.7761 6.1261 13 6.34996 13 6.6261C13 6.90225 12.7761 7.1261 12.5 7.1261H11.5C11.2239 7.1261 11 6.90225 11 6.6261ZM11 8.6261C11 8.34996 11.2239 8.1261 11.5 8.1261H12.5C12.7761 8.1261 13 8.34996 13 8.6261C13 8.90225 12.7761 9.1261 12.5 9.1261H11.5C11.2239 9.1261 11 8.90225 11 8.6261ZM11 10.6261C11 10.35 11.2239 10.1261 11.5 10.1261H12.5C12.7761 10.1261 13 10.35 13 10.6261C13 10.9022 12.7761 11.1261 12.5 11.1261H11.5C11.2239 11.1261 11 10.9022 11 10.6261Z" fill="white"/>
</svg>
